<?xml version="1.0" standalone="no"?><!DOCTYPE svg PUBLIC "-//W3C//DTD SVG 1.1//EN" "http://www.w3.org/Graphics/SVG/1.1/DTD/svg11.dtd"><svg width="200" height="200" viewBox="0 0 200 200" version="1.1" xmlns="http://www.w3.org/2000/svg" xmlns:xlink="http://www.w3.org/1999/xlink"><defs><style type="text/css"><![CDATA[
@font-face { font-family: ifont; src: url(http://at.alicdn.com/t/font_1442373896_4754455.eot?#iefix) format(embedded-opentype), url(http://at.alicdn.com/t/font_1442373896_4754455.woff) format(woff), url(http://at.alicdn.com/t/font_1442373896_4754455.ttf) format(truetype), url(http://at.alicdn.com/t/font_1442373896_4754455.svg#ifont) format(svg); }

]]></style></defs><g class="transform-group"><g transform="scale(0.1953125, 0.1953125)"><path d="M512 0.064C229.184 0.064 0 229.184 0 512 0 794.752 229.184 1024 512 1024s512-229.248 512-512C1024 229.184 794.752 0.064 512 0.064zM512 941.888c-237.376 0-429.76-192.512-429.76-429.824C82.176 274.624 274.56 82.176 512 82.176c237.312 0 429.824 192.448 429.824 429.824C941.824 749.376 749.248 941.888 512 941.888zM308.544 440.832m-94.464 0a1.476 1.476 0 1 0 188.928 0 1.476 1.476 0 1 0-188.928 0ZM715.456 440.832m-94.464 0a1.476 1.476 0 1 0 188.928 0 1.476 1.476 0 1 0-188.928 0ZM364.032 785.856c41.664-30.72 92.416-49.088 147.968-49.088s106.368 18.304 147.968 49.088c17.344 12.992 41.984 9.28 54.912-8.128 12.992-17.472 9.344-42.048-8.064-55.04C652.608 682.24 585.024 657.856 512 657.856c-73.024 0-140.608 24.384-194.88 64.832-17.408 12.992-21.056 37.568-8.128 55.04C321.984 795.136 346.624 798.784 364.032 785.856z" fill="#eb4f38"></path></g></g></svg>