<?xml version="1.0" standalone="no"?><!DOCTYPE svg PUBLIC "-//W3C//DTD SVG 1.1//EN" "http://www.w3.org/Graphics/SVG/1.1/DTD/svg11.dtd"><svg width="200" height="200" viewBox="0 0 200 200" version="1.1" xmlns="http://www.w3.org/2000/svg" xmlns:xlink="http://www.w3.org/1999/xlink"><defs><style type="text/css"><![CDATA[
@font-face { font-family: ifont; src: url(http://at.alicdn.com/t/font_1442373896_4754455.eot?#iefix) format(embedded-opentype), url(http://at.alicdn.com/t/font_1442373896_4754455.woff) format(woff), url(http://at.alicdn.com/t/font_1442373896_4754455.ttf) format(truetype), url(http://at.alicdn.com/t/font_1442373896_4754455.svg#ifont) format(svg); }

]]></style></defs><g class="transform-group"><g transform="scale(0.1953125, 0.1953125)"><path d="M510.528512 305.33632C395.805696 33.86368 66.403328 167.896064 66.403328 435.961856c-2.271232 172.65152 155.614208 293.054464 260.114432 362.341376 102.227968 67.016704 172.65152 98.82112 185.146368 98.82112 13.630464 0 90.86976-34.076672 184.010752-99.956736 103.364608-73.831424 262.385664-189.689856 261.249024-363.478016C956.923904 162.21696 628.658176 36.135936 510.528512 305.33632zM680.952832 765.275136c-85.690368 60.609536-156.749824 96.05632-169.289728 96.05632-11.495424 0-76.284928-33.355776-170.334208-95.010816C245.188608 702.575616 99.933184 602.04544 102.023168 443.205632c0-287.29344 319.18592-346.107904 408.594432-84.334592 107.199488-263.821312 410.68544-207.501312 410.68544 82.244608C922.348544 601.00096 776.04864 697.350144 680.952832 765.275136z" fill="#eb4f38"></path></g></g></svg>