<?xml version="1.0" standalone="no"?><!DOCTYPE svg PUBLIC "-//W3C//DTD SVG 1.1//EN" "http://www.w3.org/Graphics/SVG/1.1/DTD/svg11.dtd"><svg width="200" height="200" viewBox="0 0 200 200" version="1.1" xmlns="http://www.w3.org/2000/svg" xmlns:xlink="http://www.w3.org/1999/xlink"><defs><style type="text/css"><![CDATA[
@font-face { font-family: ifont; src: url(http://at.alicdn.com/t/font_1442373896_4754455.eot?#iefix) format(embedded-opentype), url(http://at.alicdn.com/t/font_1442373896_4754455.woff) format(woff), url(http://at.alicdn.com/t/font_1442373896_4754455.ttf) format(truetype), url(http://at.alicdn.com/t/font_1442373896_4754455.svg#ifont) format(svg); }

]]></style></defs><g class="transform-group"><g transform="scale(0.1953125, 0.1953125)"><path d="M358.696452 322.909387c-26.543539 0-48.057529 21.51399-48.057529 48.072879 0 26.527167 21.51399 48.057529 48.057529 48.057529s48.057529-21.51399 48.057529-48.057529C406.753981 344.423377 385.239991 322.909387 358.696452 322.909387zM871.305319 637.154441 871.305319 274.851858c0-53.087079-43.043329-96.114035-96.114035-96.114035L230.543723 178.737824c-53.070706 0-96.114035 43.026956-96.114035 96.114035l0 480.571197c0 53.070706 43.043329 96.114035 96.114035 96.114035l544.647561 0c53.070706 0 96.114035-43.043329 96.114035-96.114035L871.305319 637.346823l0.096191-0.096191L871.305319 637.154441zM839.267649 755.423055c0 35.385928-28.690436 64.076364-64.076364 64.076364L230.543723 819.499419c-31.750121 0-57.94062-23.163559-63.002916-53.487192l5.190209 5.206582 165.845189-166.30977 109.025089 109.346407 222.328621-234.038314 169.353083 169.834037 0 105.372909L839.267649 755.424078zM839.267649 605.02058 669.370167 434.642145 447.041546 668.648736 338.576205 559.894823 166.468382 732.468251 166.468382 274.851858c0-35.385928 28.690436-64.076364 64.076364-64.076364l544.647561 0c35.385928 0 64.076364 28.690436 64.076364 64.076364L839.268672 605.02058z" fill="#ecf0f1"></path></g></g></svg>