<?xml version="1.0" standalone="no"?><!DOCTYPE svg PUBLIC "-//W3C//DTD SVG 1.1//EN" "http://www.w3.org/Graphics/SVG/1.1/DTD/svg11.dtd"><svg width="200.1953125" height="200" viewBox="0 0 200.1953125 200" version="1.1" xmlns="http://www.w3.org/2000/svg" xmlns:xlink="http://www.w3.org/1999/xlink"><defs><style type="text/css"><![CDATA[
@font-face { font-family: ifont; src: url(http://at.alicdn.com/t/font_1442373896_4754455.eot?#iefix) format(embedded-opentype), url(http://at.alicdn.com/t/font_1442373896_4754455.woff) format(woff), url(http://at.alicdn.com/t/font_1442373896_4754455.ttf) format(truetype), url(http://at.alicdn.com/t/font_1442373896_4754455.svg#ifont) format(svg); }

]]></style></defs><g class="transform-group"><g transform="scale(0.1953125, 0.1953125)"><path d="M384.512 384c0 70.58432 57.41568 128 128 128s128-57.41568 128-128c0-70.583296-57.41568-128-128-128l-97.87392 0 7.33184 7.333888c8.334336 8.333312 8.334336 21.832704 0 30.166016C397.80352 317.645824 384.512 349.792256 384.512 384zM512.512 0C229.720064 0 0.512 229.229568 0.512 512c0 282.749952 229.208064 512 512 512 282.749952 0 512-229.250048 512-512C1024.512 229.229568 795.261952 0 512.512 0zM348.096512 249.730048c-6.083584-6.105088-7.917568-15.270912-4.626432-23.230464 3.334144-7.979008 11.083776-13.165568 19.707904-13.165568L512.512 213.334016c94.12608 0 170.665984 76.540928 170.665984 170.665984 0 94.084096-76.539904 170.667008-170.665984 170.667008-94.084096 0-170.665984-76.582912-170.665984-170.667008 0-38.416384 12.581888-74.87488 35.791872-104.666112L348.096512 249.730048zM825.969664 789.41696c-3.95776 3.187712-8.666112 4.750336-13.374464 4.750336-6.250496 0-12.418048-2.70848-16.625664-7.916544C719.720448 691.9168 619.05408 640 512.512 640s-207.250432 51.9168-283.49952 146.249728c-7.373824 9.146368-20.79232 10.584064-30.000128 3.167232-9.165824-7.416832-10.584064-20.83328-3.166208-30.000128 84.50048-104.542208 197.000192-162.082816 316.665856-162.082816s232.126464 57.540608 316.62592 162.082816C836.553728 768.58368 835.137536 782.000128 825.969664 789.41696z" fill="#ecf0f1"></path></g></g></svg>