<?xml version="1.0" standalone="no"?><!DOCTYPE svg PUBLIC "-//W3C//DTD SVG 1.1//EN" "http://www.w3.org/Graphics/SVG/1.1/DTD/svg11.dtd"><svg width="200" height="200" viewBox="0 0 200 200" version="1.1" xmlns="http://www.w3.org/2000/svg" xmlns:xlink="http://www.w3.org/1999/xlink"><defs><style type="text/css"><![CDATA[
@font-face { font-family: ifont; src: url(http://at.alicdn.com/t/font_1442373896_4754455.eot?#iefix) format(embedded-opentype), url(http://at.alicdn.com/t/font_1442373896_4754455.woff) format(woff), url(http://at.alicdn.com/t/font_1442373896_4754455.ttf) format(truetype), url(http://at.alicdn.com/t/font_1442373896_4754455.svg#ifont) format(svg); }

]]></style></defs><g class="transform-group"><g transform="scale(0.1953125, 0.1953125)"><path d="M639.4 214.8 200.8 214.8C96.6 214.8 12 299.4 12 403.4l0 249.4c0 102 81.2 185 182.6 188.4l91.8 158.8 91.6-158.6 261.4 0c104.4 0 188.8-84.4 188.8-188.6L828.2 403.4C828.2 299.4 743.8 214.8 639.4 214.8zM734.8 664.6c0 38.8-31.6 70.4-70.4 70.4l-306 0-72 124.6-72-124.6L175.8 735c-38.8 0-70.4-31.4-70.4-70.4L105.4 391.8c0-38.8 31.6-70.4 70.4-70.4l488.6 0c38.8 0 70.4 31.4 70.4 70.4L734.8 664.6zM823.2 22.2 384.6 22.2c-85 0-156.8 56-180.6 133l489.4 0c104.4 0 188.8 84.4 188.8 188.6l0 361.8c75.2-24.8 129.6-95.6 129.6-179l0-316C1012 106.6 927.4 22.2 823.2 22.2z" fill="#56abe4"></path></g></g></svg>