<?xml version="1.0" standalone="no"?><!DOCTYPE svg PUBLIC "-//W3C//DTD SVG 1.1//EN" "http://www.w3.org/Graphics/SVG/1.1/DTD/svg11.dtd"><svg width="200" height="200" viewBox="0 0 200 200" version="1.1" xmlns="http://www.w3.org/2000/svg" xmlns:xlink="http://www.w3.org/1999/xlink"><defs><style type="text/css"><![CDATA[
@font-face { font-family: ifont; src: url(http://at.alicdn.com/t/font_1442373896_4754455.eot?#iefix) format(embedded-opentype), url(http://at.alicdn.com/t/font_1442373896_4754455.woff) format(woff), url(http://at.alicdn.com/t/font_1442373896_4754455.ttf) format(truetype), url(http://at.alicdn.com/t/font_1442373896_4754455.svg#ifont) format(svg); }

]]></style></defs><g class="transform-group"><g transform="scale(0.1953125, 0.1953125)"><path d="M1024 512C1024 777.386667 822.08 995.562667 563.52 1021.397333 563.52 1021.397333 563.541333 1021.418667 563.541333 1021.418667 546.602667 1023.104 529.408 1024 512 1024 494.592 1024 477.397333 1023.104 460.458667 1021.418667 460.458667 1021.418667 460.48 1021.397333 460.48 1021.397333 201.92 995.562667 0 777.386667 0 512 0 246.613333 201.92 28.437333 460.48 2.602667 460.48 2.602667 460.458667 2.581333 460.458667 2.581333 477.397333 0.896 494.592 0 512 0 529.408 0 546.602667 0.896 563.541333 2.581333 563.541333 2.581333 563.52 2.602667 563.52 2.602667 822.08 28.437333 1024 246.613333 1024 512ZM43.733333 490.666667 235.285333 490.666667C237.76 415.530667 253.290667 343.744 279.466667 277.333333L105.962667 277.333333C69.312 340.608 47.232 413.141333 43.733333 490.666667ZM980.266667 533.333333 788.714667 533.333333C786.24 608.469333 770.709333 680.256 744.533333 746.666667L918.037333 746.666667C954.688 683.392 976.768 610.858667 980.266667 533.333333ZM745.472 533.333333 533.333333 533.333333 533.333333 746.666667 697.28 746.666667C725.418667 680.704 742.784 609.002667 745.472 533.333333ZM533.333333 789.333333 533.333333 969.216C592.469333 919.509333 641.194667 858.261333 677.312 789.333333L533.333333 789.333333ZM490.666667 969.216 490.666667 789.333333 346.688 789.333333C382.805333 858.261333 431.530667 919.509333 490.666667 969.216ZM490.666667 746.666667 490.666667 533.333333 278.528 533.333333C281.216 609.002667 298.581333 680.704 326.72 746.666667L490.666667 746.666667ZM235.285333 533.333333 43.733333 533.333333C47.232 610.858667 69.312 683.392 105.962667 746.666667L279.466667 746.666667C253.290667 680.256 237.76 608.469333 235.285333 533.333333ZM278.528 490.666667 490.666667 490.666667 490.666667 277.333333 326.72 277.333333C298.581333 343.296 281.216 414.997333 278.528 490.666667ZM490.666667 234.666667 490.666667 54.784C431.530667 104.490667 382.805333 165.738667 346.688 234.666667L490.666667 234.666667ZM533.333333 54.784 533.333333 234.666667 677.312 234.666667C641.194667 165.738667 592.469333 104.490667 533.333333 54.784ZM533.333333 277.333333 533.333333 490.666667 745.472 490.666667C742.784 414.997333 725.418667 343.296 697.28 277.333333L533.333333 277.333333ZM788.714667 490.666667 980.266667 490.666667C976.768 413.141333 954.688 340.608 918.037333 277.333333L744.533333 277.333333C770.709333 343.744 786.24 415.530667 788.714667 490.666667ZM890.026667 789.333333 725.781333 789.333333C692.309333 858.858667 646.592 921.301333 591.509333 974.101333 713.706667 953.194667 819.52 885.248 890.026667 789.333333ZM432.490667 974.101333C377.408 921.301333 331.690667 858.858667 298.218667 789.333333L133.973333 789.333333C204.48 885.248 310.293333 953.194667 432.490667 974.101333ZM133.973333 234.666667 298.218667 234.666667C331.690667 165.141333 377.408 102.698667 432.490667 49.898667 310.293333 70.805333 204.48 138.752 133.973333 234.666667ZM591.509333 49.898667C646.592 102.698667 692.309333 165.141333 725.781333 234.666667L890.026667 234.666667C819.52 138.752 713.706667 70.805333 591.509333 49.898667Z" fill="#ecf0f1"></path></g></g></svg>